<?xml version="1.0" standalone="no"?>
<!DOCTYPE svg PUBLIC "-//W3C//DTD SVG 20010904//EN"
 "http://www.w3.org/TR/2001/REC-SVG-20010904/DTD/svg10.dtd">
<svg version="1.0" xmlns="http://www.w3.org/2000/svg"
 width="1024.000000pt" height="1024.000000pt" viewBox="0 0 1024.000000 1024.000000"
 preserveAspectRatio="xMidYMid meet">
<metadata>
Created by potrace 1.15, written by Peter Selinger 2001-2017
</metadata>
<g transform="translate(0.000000,1024.000000) scale(0.100000,-0.100000)"
fill="#000000" stroke="none">
<path d="M5080 7310 c0 -13 -7 -20 -20 -20 -18 0 -20 -7 -20 -85 0 -50 4 -85
10 -85 6 0 10 -9 10 -20 0 -11 5 -20 10 -20 16 0 13 -719 -2 -753 -7 -15 -16
-27 -20 -27 -5 0 -8 -38 -8 -85 0 -50 4 -85 10 -85 6 0 10 -9 10 -20 0 -11 6
-20 14 -20 7 0 16 -9 19 -20 3 -11 12 -20 21 -20 9 0 16 8 16 20 0 11 6 20 13
20 34 0 50 132 22 186 -8 16 -15 44 -15 62 0 17 -4 32 -10 32 -6 0 -10 120
-10 340 0 200 4 340 9 340 5 0 12 13 16 30 4 16 11 32 16 35 12 8 12 121 -1
143 -5 9 -14 29 -20 45 -7 21 -16 27 -40 27 -23 0 -30 -4 -30 -20z m68 -61
c12 -22 22 -52 22 -65 0 -22 -31 -87 -51 -108 -13 -14 -12 -736 1 -736 6 0 10
-14 10 -31 0 -17 9 -43 20 -58 19 -28 20 -52 6 -104 -6 -18 -13 -26 -22 -23
-9 4 -14 -2 -15 -17 l0 -22 -10 23 c-5 13 -13 21 -18 17 -30 -18 -43 118 -16
169 13 24 15 92 15 416 0 324 -2 392 -15 416 -20 39 -20 134 0 134 8 0 15 7
15 15 0 31 36 15 58 -26z"/>
<path d="M4820 7170 c0 -11 -4 -20 -10 -20 -6 0 -10 -35 -10 -85 0 -47 3 -85
8 -85 27 0 32 -63 32 -410 0 -347 -5 -410 -32 -410 -5 0 -8 -38 -8 -85 0 -50
4 -85 10 -85 6 0 10 -9 10 -20 0 -17 7 -20 45 -20 38 0 45 3 45 20 0 11 4 20
9 20 12 0 22 101 14 155 -4 35 -11 49 -25 53 -17 4 -18 23 -18 372 0 352 1
368 19 373 15 4 20 18 26 75 7 73 0 132 -16 132 -5 0 -9 9 -9 20 0 17 -7 20
-45 20 -38 0 -45 -3 -45 -20z m70 -25 c0 -5 9 -21 20 -35 21 -26 27 -70 10
-70 -5 0 -10 -15 -10 -34 0 -26 -4 -33 -17 -32 -17 1 -18 -24 -21 -379 -1
-209 0 -390 3 -402 3 -13 12 -23 20 -23 10 0 15 -10 15 -29 0 -17 5 -33 11
-37 8 -4 8 -9 0 -17 -6 -6 -11 -21 -11 -33 0 -56 -56 -93 -80 -54 -16 25 -11
118 7 153 15 29 17 74 15 421 -1 325 -4 393 -17 419 -17 35 -20 106 -5 139 11
23 60 34 60 13z"/>
<path d="M5310 7164 c-6 -14 -10 -30 -10 -35 0 -5 -4 -9 -10 -9 -5 0 -10 -25
-10 -55 0 -30 4 -55 9 -55 5 0 11 -22 15 -50 4 -27 11 -50 16 -50 6 0 10 -123
10 -325 0 -179 -4 -325 -9 -325 -4 0 -11 -21 -14 -47 -3 -26 -10 -49 -16 -51
-13 -4 -15 -142 -2 -142 4 0 12 -15 17 -32 9 -30 14 -33 52 -36 l42 -3 0 35
c0 20 5 36 10 36 15 0 13 137 -2 143 -10 3 -13 93 -13 407 0 314 3 404 13 408
15 5 17 172 2 172 -5 0 -10 9 -10 20 0 17 -7 20 -40 20 -34 0 -42 -4 -50 -26z
m85 -26 c13 -41 7 -128 -9 -153 -14 -21 -16 -75 -16 -417 1 -330 3 -396 15
-412 17 -23 20 -106 5 -106 -7 0 -8 -13 -4 -37 6 -32 5 -35 -10 -30 -10 4 -23
7 -30 7 -18 0 -46 65 -46 108 0 21 7 47 15 58 8 10 15 34 15 52 0 17 5 32 10
32 6 0 10 123 10 350 0 196 -4 350 -9 350 -9 0 -23 32 -26 60 -1 8 -5 28 -10
43 -10 37 20 104 49 110 11 2 24 5 27 6 4 0 10 -9 14 -21z"/>
<path d="M4600 7070 c0 -13 -7 -20 -19 -20 -16 0 -20 -10 -26 -65 -7 -70 1
-145 16 -145 5 0 9 -7 9 -15 0 -8 5 -15 10 -15 6 0 10 -127 10 -360 0 -233 -4
-360 -10 -360 -5 0 -10 -6 -10 -14 0 -8 -6 -16 -12 -19 -17 -5 -16 -199 1
-205 6 -2 11 -10 11 -18 0 -9 11 -14 35 -14 24 0 35 5 35 15 0 8 5 15 10 15 6
0 10 9 10 20 0 11 5 20 10 20 6 0 10 35 10 85 0 50 -4 85 -10 85 -5 0 -10 7
-10 15 0 8 -4 15 -10 15 -6 0 -10 127 -10 360 0 233 4 360 10 360 6 0 10 7 10
15 0 8 5 15 10 15 6 0 10 37 10 91 0 57 -4 88 -10 84 -5 -3 -10 3 -10 14 0 12
-4 21 -10 21 -5 0 -10 9 -10 20 0 15 -7 20 -25 20 -18 0 -25 -5 -25 -20z m45
-50 c4 -16 11 -32 16 -35 15 -10 10 -104 -7 -137 -14 -27 -16 -78 -15 -401 2
-302 5 -375 16 -398 30 -56 5 -191 -36 -202 -20 -5 -39 31 -39 73 0 17 -4 30
-10 30 -12 0 -14 47 -2 52 4 2 17 23 30 48 22 44 22 52 22 399 l0 355 -32 64
c-27 53 -30 66 -20 82 7 11 12 32 12 46 0 19 4 25 15 20 10 -3 15 1 15 13 0
42 25 36 35 -9z"/>
<path d="M5570 7070 c0 -12 -7 -20 -16 -20 -14 0 -15 -15 -12 -117 2 -82 7
-118 16 -121 9 -3 12 -84 12 -362 0 -278 -3 -359 -12 -362 -9 -3 -14 -39 -16
-121 -3 -102 -2 -117 12 -117 9 0 16 -7 16 -15 0 -10 10 -15 30 -15 20 0 30 5
30 15 0 8 7 15 15 15 12 0 15 18 15 104 0 75 -4 106 -12 109 -10 3 -13 89 -13
387 0 298 3 384 13 388 18 6 17 212 -2 212 -7 0 -16 9 -19 20 -3 14 -14 20
-31 20 -19 0 -26 -5 -26 -20z m40 -30 c0 -11 7 -20 15 -20 21 0 21 -133 0
-174 -22 -42 -22 -761 0 -790 18 -24 22 -181 4 -171 -6 4 -13 -2 -16 -14 -7
-26 -20 -27 -28 -2 -3 12 -12 18 -20 15 -12 -5 -14 8 -11 68 4 78 13 118 27
118 5 0 9 165 9 375 0 335 -2 378 -17 401 -11 17 -18 53 -20 100 -3 68 -2 75
14 72 12 -2 19 4 21 20 4 27 22 29 22 2z"/>
<path d="M5760 6589 c0 -15 -5 -19 -15 -15 -27 10 -38 -40 -31 -144 3 -52 10
-96 16 -98 5 -2 10 -35 10 -73 0 -39 4 -69 10 -69 6 0 10 -7 10 -15 0 -8 -4
-15 -10 -15 -7 0 -10 -240 -10 -700 0 -460 3 -700 10 -700 6 0 10 -22 10 -50
0 -27 -4 -50 -10 -50 -5 0 -10 -9 -10 -20 0 -11 -4 -20 -9 -20 -14 0 -23 -118
-14 -180 l8 -55 53 -3 c47 -3 52 -1 52 17 0 12 5 21 10 21 6 0 10 35 10 85 0
47 -3 85 -7 85 -31 0 -33 57 -33 897 0 555 3 843 10 843 6 0 10 9 10 21 0 11
5 17 10 14 6 -4 10 27 10 84 0 50 -4 91 -9 91 -5 0 -11 9 -14 21 -3 12 -10 18
-15 15 -5 -3 -12 3 -15 14 -7 27 -37 26 -37 -1z m35 -49 c8 0 19 -9 25 -19 15
-29 12 -124 -5 -147 -22 -29 -22 -1759 0 -1788 18 -24 19 -123 2 -151 -8 -13
-24 -21 -44 -21 -30 -2 -33 1 -33 27 0 16 -6 38 -12 49 -10 15 -10 22 0 32 6
6 12 26 12 44 0 17 9 43 20 57 15 19 20 40 20 90 0 36 -4 69 -10 72 -7 4 -10
242 -10 681 0 443 3 674 10 674 6 0 10 18 10 40 0 22 -4 40 -10 40 -5 0 -10
12 -10 26 0 14 4 23 10 19 17 -11 11 33 -10 67 -11 18 -20 45 -20 60 0 15 -4
30 -10 33 -26 16 -2 115 29 115 6 0 12 8 12 18 1 16 2 16 6 0 2 -10 11 -18 18
-18z"/>
<path d="M4389 6553 c-14 -37 -7 -215 9 -221 9 -3 12 -204 12 -858 0 -498 -4
-853 -9 -850 -5 3 -12 -10 -15 -29 -4 -19 -11 -35 -16 -35 -16 0 -12 -85 5
-116 8 -16 15 -37 15 -47 0 -10 5 -15 10 -12 6 3 10 -3 10 -15 0 -17 5 -21 27
-18 21 2 29 10 37 36 5 17 13 32 17 32 5 0 9 9 9 21 0 11 5 17 10 14 6 -4 10
15 10 49 0 31 -4 56 -10 56 -5 0 -10 6 -10 14 0 8 -6 16 -12 19 -10 3 -13 188
-13 882 0 694 3 879 13 883 6 2 12 12 12 23 0 10 5 19 10 19 6 0 10 23 10 50
0 28 -4 50 -10 50 -5 0 -10 9 -10 20 0 11 -4 20 -9 20 -5 0 -11 9 -14 20 -4
15 -14 20 -41 20 -31 0 -38 -5 -47 -27z m84 -43 c6 -16 15 -30 19 -30 16 0 8
-38 -18 -85 l-25 -49 1 -868 1 -868 24 -47 c14 -25 25 -50 25 -56 0 -20 -55
-126 -64 -123 -6 1 -14 15 -19 31 -6 16 -18 38 -29 49 -19 21 -24 56 -9 72 5
5 19 26 30 47 21 37 21 43 21 897 0 841 0 860 -20 895 -36 65 -19 165 28 165
17 0 27 -8 35 -30z"/>
<path d="M4220 5820 c0 -121 -4 -210 -9 -210 -5 0 -12 -13 -16 -30 -4 -16 -11
-30 -16 -30 -5 0 -9 -25 -9 -55 0 -30 5 -55 10 -55 6 0 10 -12 10 -27 0 -16 7
-41 15 -57 12 -22 15 -70 15 -227 l0 -199 35 0 35 0 0 205 c0 130 4 205 10
205 6 0 10 9 10 21 0 11 5 17 10 14 6 -4 10 32 10 99 0 58 -3 106 -7 106 -25
0 -33 63 -33 252 l0 198 -35 0 -35 0 0 -210z"/>
<path d="M5930 5825 c0 -130 -4 -205 -10 -205 -5 0 -10 -9 -10 -19 0 -11 -6
-21 -12 -24 -17 -5 -16 -189 1 -195 6 -2 11 -12 11 -23 0 -10 5 -19 10 -19 6
0 10 -75 10 -205 l0 -205 35 0 35 0 0 205 c0 130 4 205 10 205 6 0 10 9 10 20
0 11 5 20 10 20 6 0 10 33 10 79 0 44 -4 83 -10 86 -5 3 -10 22 -10 41 0 19
-4 34 -10 34 -6 0 -10 75 -10 205 l0 205 -35 0 -35 0 0 -205z"/>
<path d="M4600 5670 c0 -11 -4 -20 -10 -20 -6 0 -10 -42 -10 -105 0 -63 4
-105 10 -105 6 0 10 -7 10 -15 0 -12 14 -15 65 -15 51 0 65 -3 65 -15 0 -8 5
-15 10 -15 6 0 10 -9 10 -20 0 -18 7 -20 54 -20 54 0 54 0 60 35 6 31 10 35
39 35 36 0 57 -31 57 -83 0 -26 3 -28 33 -25 l32 3 3 103 c2 65 -1 102 -8 102
-5 0 -10 9 -10 20 0 18 -7 20 -70 20 l-69 0 -7 35 c-6 35 -6 35 -60 35 -47 0
-54 -2 -54 -20 0 -11 -4 -20 -10 -20 -5 0 -10 -7 -10 -15 0 -10 -10 -15 -30
-15 -20 0 -30 5 -30 15 0 8 -4 15 -10 15 -5 0 -10 13 -10 29 0 42 -17 81 -35
81 -8 0 -15 -9 -15 -20z"/>
<path d="M5570 5671 c0 -12 -4 -21 -10 -21 -5 0 -10 -22 -10 -50 l0 -50 -40 0
c-39 0 -40 1 -40 35 l0 35 -48 0 c-46 0 -49 -2 -62 -35 l-13 -34 -76 -3 -76
-3 -3 -117 c-2 -76 1 -118 8 -118 5 0 10 -9 10 -20 0 -13 7 -20 20 -20 13 0
20 7 20 20 0 11 5 20 10 20 6 0 10 23 10 50 l0 50 38 0 c34 0 40 -4 52 -35 13
-33 16 -35 62 -35 l48 0 0 35 0 35 79 0 79 0 6 31 c8 40 7 140 -2 199 -6 40
-10 45 -34 48 -23 3 -28 -1 -28 -17z"/>
<path d="M4600 5125 c0 -8 -7 -15 -15 -15 -9 0 -20 -12 -26 -27 -14 -37 -7
-175 9 -181 7 -2 12 -12 12 -23 0 -10 5 -19 10 -19 7 0 10 -205 10 -595 0
-390 -3 -595 -10 -595 -5 0 -10 -9 -10 -21 0 -11 -4 -18 -9 -15 -12 8 -24
-116 -16 -164 4 -22 11 -40 16 -40 5 0 9 -9 9 -20 0 -17 7 -20 45 -20 38 0 45
3 45 20 0 11 5 20 10 20 6 0 10 35 10 85 0 50 -4 85 -10 85 -5 0 -10 9 -10 20
0 11 -4 20 -10 20 -7 0 -10 210 -10 610 0 400 3 610 10 610 6 0 10 9 10 20 0
11 5 20 10 20 6 0 10 35 10 85 0 50 -4 85 -10 85 -5 0 -10 7 -10 15 0 8 -4 15
-10 15 -5 0 -10 9 -10 20 0 15 -7 20 -25 20 -16 0 -25 -6 -25 -15z m45 -45 c4
-16 11 -32 16 -35 15 -10 11 -118 -6 -143 -14 -19 -16 -102 -17 -650 -1 -566
1 -632 15 -662 19 -38 22 -122 6 -148 -7 -12 -20 -17 -33 -15 -24 5 -66 63
-66 93 0 22 15 27 24 8 3 -7 2 5 -1 28 -4 30 1 52 16 83 21 41 22 48 21 634
l-1 593 -30 54 c-32 58 -36 94 -16 133 11 20 17 23 25 15 9 -9 12 -6 12 15 0
37 27 35 35 -3z"/>
<path d="M5570 5120 c0 -14 -5 -18 -16 -13 -14 5 -16 -7 -13 -117 3 -87 8
-125 17 -128 15 -5 18 -1192 2 -1192 -5 0 -12 -22 -16 -50 -4 -27 -10 -50 -15
-50 -5 0 -9 -16 -9 -35 0 -19 5 -35 10 -35 6 0 10 -13 10 -29 0 -16 4 -41 10
-55 8 -22 16 -26 50 -26 33 0 40 3 40 20 0 11 5 20 10 20 6 0 10 42 10 105 0
87 -3 105 -15 105 -14 0 -15 71 -13 627 2 490 6 627 16 631 15 5 17 172 2 172
-5 0 -10 9 -10 21 0 15 -5 19 -15 15 -10 -4 -15 1 -15 14 0 13 -7 20 -20 20
-13 0 -20 -7 -20 -20z m30 -46 c0 -8 4 -13 9 -9 30 18 44 -124 16 -161 -22
-29 -22 -1294 0 -1294 12 0 15 -15 15 -74 0 -93 -5 -106 -39 -106 -37 0 -54
35 -54 109 1 44 6 68 22 90 21 29 21 35 21 635 0 571 -1 607 -19 638 -24 43
-28 183 -5 174 8 -3 14 1 14 10 0 8 5 12 10 9 6 -3 10 -13 10 -21z"/>
<path d="M4830 4865 c-8 -19 -17 -35 -22 -35 -4 0 -8 -38 -8 -85 0 -47 3 -85
8 -85 4 0 13 -12 20 -27 14 -32 18 -483 3 -483 -11 0 -21 35 -21 73 0 15 -4
27 -10 27 -5 0 -10 9 -10 20 0 18 -7 20 -54 20 -52 0 -54 -1 -60 -31 -3 -17
-6 -66 -6 -109 0 -105 8 -140 31 -140 12 0 19 -7 19 -20 0 -12 7 -20 16 -20 9
0 18 9 21 20 7 27 43 27 43 -1 0 -11 5 -17 10 -14 6 3 10 -3 10 -14 0 -12 5
-21 10 -21 6 0 10 -97 10 -270 0 -173 -4 -270 -10 -270 -5 0 -10 -9 -10 -20 0
-11 -4 -20 -10 -20 -6 0 -10 -35 -10 -85 0 -50 4 -85 10 -85 6 0 10 -9 10 -20
0 -17 7 -20 45 -20 38 0 45 3 45 20 0 11 4 20 9 20 15 0 23 76 16 142 -6 47
-11 62 -26 65 -18 5 -19 19 -18 262 0 192 3 250 11 234 6 -13 17 -23 25 -23 7
0 13 -7 13 -15 0 -8 7 -15 15 -15 8 0 15 -9 15 -20 0 -13 7 -20 20 -20 11 0
20 -7 20 -15 0 -8 7 -15 15 -15 8 0 15 -7 15 -15 0 -8 5 -15 10 -15 6 0 10 -9
10 -20 0 -11 5 -20 10 -20 6 0 10 -97 10 -270 0 -173 -4 -270 -10 -270 -5 0
-10 -9 -10 -20 0 -11 -4 -20 -10 -20 -6 0 -10 -35 -10 -85 0 -50 4 -85 10 -85
6 0 10 -9 10 -20 0 -17 7 -20 50 -20 l50 0 0 34 c0 19 5 38 10 41 12 8 13 105
1 105 -4 0 -11 21 -14 47 -3 26 -10 49 -16 51 -15 5 -16 512 -1 512 6 0 10 9
10 20 0 13 5 18 15 14 10 -4 15 0 15 15 0 14 6 21 20 21 11 0 20 7 20 15 0 8
7 15 15 15 8 0 15 9 15 20 0 11 7 20 15 20 8 0 15 6 15 14 0 7 11 16 25 18 25
5 25 4 25 -63 0 -39 -4 -69 -10 -69 -5 0 -10 -16 -10 -35 0 -19 5 -35 10 -35
6 0 10 -47 10 -120 0 -70 -4 -120 -10 -120 -5 0 -12 -16 -16 -35 -3 -19 -10
-35 -15 -35 -12 0 -11 -116 1 -138 5 -9 14 -29 20 -44 8 -24 15 -28 50 -28 33
0 40 3 40 20 0 11 5 20 10 20 16 0 12 153 -5 186 -22 43 -22 594 0 594 8 0 15
9 15 20 0 11 7 20 15 20 8 0 15 -9 15 -20 0 -15 7 -20 26 -20 17 0 28 6 31 20
3 11 12 20 19 20 9 0 14 12 14 35 0 19 5 35 10 35 6 0 10 23 10 50 0 28 -4 50
-10 50 -5 0 -10 16 -10 35 0 19 -4 35 -10 35 -5 0 -10 9 -10 21 0 18 -5 20
-42 17 -36 -3 -43 -7 -51 -33 -6 -16 -13 -32 -18 -35 -4 -3 -9 -23 -12 -45 -2
-22 -4 77 -3 219 1 198 4 260 14 264 15 5 17 172 2 172 -5 0 -10 9 -10 20 0
11 -7 20 -15 20 -8 0 -15 7 -15 15 0 8 -9 15 -20 15 -11 0 -20 -7 -20 -15 0
-8 -7 -15 -15 -15 -10 0 -15 -11 -15 -35 0 -19 -4 -35 -10 -35 -14 0 -13 -107
2 -112 6 -2 13 -31 16 -66 2 -34 8 -62 13 -62 5 0 9 -70 9 -155 0 -97 -4 -155
-10 -155 -5 0 -10 -16 -10 -35 0 -19 5 -35 10 -35 6 0 10 -16 10 -35 0 -19 -4
-35 -10 -35 -5 0 -10 -13 -10 -30 0 -20 -5 -30 -15 -30 -8 0 -15 -9 -15 -21 0
-12 -4 -17 -11 -14 -6 4 -13 -2 -16 -14 -3 -12 -13 -21 -24 -21 -12 0 -19 -7
-19 -20 0 -13 -5 -18 -15 -14 -10 4 -15 0 -15 -15 0 -12 -6 -21 -15 -21 -10 0
-15 11 -15 35 0 19 -4 35 -10 35 -6 0 -10 68 -10 185 0 102 4 185 9 185 5 0
12 16 15 35 4 19 11 35 16 35 6 0 10 32 10 70 0 39 -4 70 -10 70 -5 0 -12 16
-16 35 -6 34 -8 35 -50 35 -37 0 -44 -3 -44 -20 0 -11 -4 -20 -10 -20 -6 0
-10 -35 -10 -85 0 -47 3 -85 8 -85 25 0 32 -64 32 -282 0 -187 -2 -228 -14
-228 -7 0 -16 10 -19 21 -4 15 -11 20 -21 16 -11 -5 -16 0 -16 13 0 11 -6 20
-14 20 -7 0 -16 9 -19 20 -3 13 -10 18 -21 14 -12 -4 -16 0 -16 15 0 12 -6 21
-15 21 -8 0 -15 7 -15 15 0 8 -4 15 -10 15 -6 0 -10 97 -10 270 0 173 4 270
10 270 6 0 10 9 10 19 0 11 5 21 11 23 16 5 18 160 2 165 -7 3 -13 13 -13 24
0 10 -4 19 -10 19 -5 0 -10 7 -10 15 0 9 -9 15 -23 15 -17 0 -27 -9 -37 -35z
m55 -22 c3 -15 15 -39 26 -54 12 -17 15 -30 9 -34 -5 -3 -10 -18 -10 -33 0
-15 -9 -42 -20 -60 -19 -30 -20 -50 -20 -297 l0 -265 -25 0 c-14 0 -25 5 -25
10 0 6 7 10 15 10 22 0 22 504 0 546 -20 39 -19 109 3 161 20 49 37 55 47 16z
m475 2 c0 -8 6 -15 14 -15 32 0 40 -116 12 -171 -13 -27 -16 -73 -16 -293 0
-244 -2 -263 -20 -286 -16 -20 -20 -22 -20 -7 0 9 5 17 10 17 14 0 13 107 -1
116 -8 4 -8 9 0 17 14 14 15 357 1 357 -5 0 -10 24 -10 53 -1 30 -7 60 -15 71
-17 23 -20 62 -4 71 6 4 7 19 3 37 -5 26 -4 30 10 25 10 -4 16 -1 16 8 0 8 5
15 10 15 6 0 10 -7 10 -15z m-213 -295 c13 -25 23 -55 23 -67 0 -21 -31 -87
-51 -107 -13 -14 -12 -426 1 -426 6 0 10 -5 10 -11 0 -5 -4 -7 -10 -4 -6 3
-10 -5 -10 -19 0 -14 5 -28 10 -31 22 -13 10 -32 -17 -28 -52 8 -60 14 -35 24
l22 8 0 255 c0 206 -3 259 -15 282 -17 32 -20 126 -6 153 18 33 53 20 78 -29z
m234 -1181 c6 -3 14 -37 19 -74 7 -53 5 -73 -6 -90 -21 -32 -55 -22 -76 23
-29 63 -26 108 13 164 16 22 19 45 19 161 0 99 -3 137 -12 140 -10 4 -10 7 0
18 15 16 17 189 2 189 -5 0 -10 9 -10 21 0 11 5 17 10 14 6 -3 13 2 18 12 4
10 8 -115 10 -277 1 -194 6 -296 13 -301z m-511 302 c0 -148 3 -276 6 -285 3
-9 12 -16 20 -16 9 0 14 -12 14 -35 0 -19 5 -35 10 -35 6 0 10 -11 10 -25 0
-14 -4 -25 -8 -25 -5 0 -14 -15 -21 -34 -11 -26 -18 -32 -35 -28 -11 2 -27 12
-33 20 -18 22 -16 103 3 142 14 28 17 73 17 311 0 154 4 279 8 279 5 0 9 -121
9 -269z m240 -238 c0 -152 3 -273 7 -270 10 10 33 -42 33 -74 0 -16 5 -29 10
-29 15 0 12 -36 -5 -50 -9 -8 -13 -21 -9 -36 6 -22 3 -24 -34 -24 -33 0 -41 4
-46 23 -11 42 -6 123 9 143 12 16 14 70 15 312 0 193 3 291 10 287 6 -4 10
-109 10 -282z"/>
</g>
</svg>
